<svg width="96" height="96" viewBox="0 0 96 96" fill="none" xmlns="http://www.w3.org/2000/svg">
  <defs>
    <linearGradient id="start-bg" x1="14" y1="10" x2="82" y2="88" gradientUnits="userSpaceOnUse">
      <stop stop-color="#5E66FF" />
      <stop offset="1" stop-color="#34D4FF" />
    </linearGradient>
  </defs>
  <rect x="8" y="8" width="80" height="80" rx="20" fill="url(#start-bg)" />
  <circle cx="48" cy="48" r="20" fill="#F7FAFF" fill-opacity="0.16" stroke="#F7FAFF" stroke-opacity="0.5" />
  <path d="M39 36C39 34.3 40.3 33 42 33H54C55.7 33 57 34.3 57 36V60C57 61.7 55.7 63 54 63H42C40.3 63 39 61.7 39 60V36Z" fill="#F9FCFF" />
  <path d="M48 40V56" stroke="#4D5EFF" stroke-width="3" stroke-linecap="round" />
  <path d="M42 46H54" stroke="#4D5EFF" stroke-width="3" stroke-linecap="round" />
  <path d="M26 45C27.7 41.2 30.7 38.3 34.5 36.6" stroke="#F8FBFF" stroke-width="3.2" stroke-linecap="round" />
  <path d="M70 45C68.3 41.2 65.3 38.3 61.5 36.6" stroke="#F8FBFF" stroke-width="3.2" stroke-linecap="round" />
  <path d="M26 51C27.7 54.8 30.7 57.7 34.5 59.4" stroke="#F8FBFF" stroke-width="3.2" stroke-linecap="round" />
  <path d="M70 51C68.3 54.8 65.3 57.7 61.5 59.4" stroke="#F8FBFF" stroke-width="3.2" stroke-linecap="round" />
</svg>
